<mxfile host="65bd71144e" scale="1" border="5">
    <diagram id="ntK5JivClJutBt_FF_ey" name="Page-1">
        <mxGraphModel dx="1282" dy="925" grid="1" gridSize="10" guides="1" tooltips="1" connect="1" arrows="1" fold="1" page="1" pageScale="1" pageWidth="1400" pageHeight="600" math="0" shadow="0">
            <root>
                <mxCell id="0"/>
                <mxCell id="1" parent="0"/>
                <mxCell id="48" value="" style="rounded=1;whiteSpace=wrap;html=1;strokeColor=#000000;dashed=1;" vertex="1" parent="1">
                    <mxGeometry x="1125" y="145" width="240" height="400" as="geometry"/>
                </mxCell>
                <mxCell id="3" value="" style="rounded=1;whiteSpace=wrap;html=1;strokeColor=#000000;dashed=1;" vertex="1" parent="1">
                    <mxGeometry x="35" y="145" width="240" height="400" as="geometry"/>
                </mxCell>
                <mxCell id="4" value="&lt;font face=&quot;Verdana&quot; style=&quot;font-size: 20px&quot;&gt;&lt;b&gt;Presentation Layer&lt;/b&gt;&lt;/font&gt;&lt;hr&gt;&lt;font face=&quot;Verdana&quot;&gt;&lt;b&gt;&lt;font style=&quot;font-size: 18px&quot;&gt;Client Side&lt;/font&gt;&lt;/b&gt;&lt;br&gt;&lt;/font&gt;" style="rounded=0;whiteSpace=wrap;html=1;strokeColor=#000000;" vertex="1" parent="1">
                    <mxGeometry x="35" y="55" width="240" height="70" as="geometry"/>
                </mxCell>
                <mxCell id="5" value="&lt;font style=&quot;font-size: 18px&quot;&gt;Web Page Render&lt;/font&gt;" style="rounded=0;whiteSpace=wrap;html=1;fontFamily=Verdana;fontSize=20;strokeColor=#000000;" vertex="1" parent="1">
                    <mxGeometry x="60" y="195" width="190" height="40" as="geometry"/>
                </mxCell>
                <mxCell id="45" style="edgeStyle=none;html=1;exitX=0.5;exitY=0;exitDx=0;exitDy=0;entryX=0.5;entryY=1;entryDx=0;entryDy=0;fontFamily=Verdana;fontSize=20;endArrow=open;endFill=0;strokeWidth=1;dashed=1;" edge="1" parent="1" source="6" target="24">
                    <mxGeometry relative="1" as="geometry"/>
                </mxCell>
                <mxCell id="6" value="&lt;font style=&quot;font-size: 18px&quot;&gt;Interaction&lt;/font&gt;" style="rounded=0;whiteSpace=wrap;html=1;fontFamily=Verdana;fontSize=20;strokeColor=#000000;" vertex="1" parent="1">
                    <mxGeometry x="95" y="445" width="120" height="40" as="geometry"/>
                </mxCell>
                <mxCell id="15" style="edgeStyle=none;html=1;exitX=0;exitY=0.5;exitDx=0;exitDy=0;entryX=1;entryY=0.5;entryDx=0;entryDy=0;fontFamily=Verdana;fontSize=20;endArrow=open;endFill=0;strokeWidth=2;" edge="1" parent="1" source="7" target="5">
                    <mxGeometry relative="1" as="geometry"/>
                </mxCell>
                <mxCell id="7" value="&lt;font style=&quot;font-size: 16px&quot;&gt;HTML&lt;/font&gt;" style="rounded=0;whiteSpace=wrap;html=1;fontFamily=Verdana;fontSize=20;strokeColor=#000000;" vertex="1" parent="1">
                    <mxGeometry x="315" y="225" width="60" height="40" as="geometry"/>
                </mxCell>
                <mxCell id="26" style="edgeStyle=none;html=1;exitX=0;exitY=0.5;exitDx=0;exitDy=0;fontFamily=Verdana;fontSize=20;endArrow=open;endFill=0;strokeWidth=2;entryX=1;entryY=0.5;entryDx=0;entryDy=0;" edge="1" parent="1" source="8" target="24">
                    <mxGeometry relative="1" as="geometry"/>
                </mxCell>
                <mxCell id="42" style="edgeStyle=none;html=1;exitX=0.5;exitY=0;exitDx=0;exitDy=0;entryX=0.5;entryY=1;entryDx=0;entryDy=0;fontFamily=Verdana;fontSize=20;endArrow=open;endFill=0;strokeWidth=2;" edge="1" parent="1" source="8" target="7">
                    <mxGeometry relative="1" as="geometry"/>
                </mxCell>
                <mxCell id="43" style="edgeStyle=none;html=1;exitX=0.5;exitY=1;exitDx=0;exitDy=0;entryX=0.168;entryY=0.004;entryDx=0;entryDy=0;entryPerimeter=0;fontFamily=Verdana;fontSize=20;endArrow=open;endFill=0;strokeWidth=2;" edge="1" parent="1" source="8" target="35">
                    <mxGeometry relative="1" as="geometry"/>
                </mxCell>
                <mxCell id="8" value="&lt;font style=&quot;font-size: 16px&quot;&gt;Java Script&lt;/font&gt;" style="rounded=0;whiteSpace=wrap;html=1;fontFamily=Verdana;fontSize=20;strokeColor=#000000;" vertex="1" parent="1">
                    <mxGeometry x="295" y="385" width="100" height="40" as="geometry"/>
                </mxCell>
                <mxCell id="17" style="edgeStyle=none;html=1;exitX=0;exitY=0.5;exitDx=0;exitDy=0;entryX=1;entryY=0.5;entryDx=0;entryDy=0;fontFamily=Verdana;fontSize=20;endArrow=open;endFill=0;strokeWidth=2;" edge="1" parent="1" source="10" target="5">
                    <mxGeometry relative="1" as="geometry"/>
                </mxCell>
                <mxCell id="10" value="&lt;font style=&quot;font-size: 16px&quot;&gt;CSS&lt;/font&gt;" style="rounded=0;whiteSpace=wrap;html=1;fontFamily=Verdana;fontSize=20;strokeColor=#000000;" vertex="1" parent="1">
                    <mxGeometry x="315" y="145" width="60" height="40" as="geometry"/>
                </mxCell>
                <mxCell id="12" value="" style="rounded=1;whiteSpace=wrap;html=1;strokeColor=#000000;dashed=1;" vertex="1" parent="1">
                    <mxGeometry x="565" y="145" width="240" height="400" as="geometry"/>
                </mxCell>
                <mxCell id="13" value="&lt;font style=&quot;font-size: 18px&quot;&gt;Interaction&lt;/font&gt;" style="rounded=0;whiteSpace=wrap;html=1;fontFamily=Verdana;fontSize=20;strokeColor=#000000;" vertex="1" parent="1">
                    <mxGeometry x="625" y="445" width="120" height="40" as="geometry"/>
                </mxCell>
                <mxCell id="20" value="&lt;font face=&quot;Verdana&quot; style=&quot;font-size: 20px&quot;&gt;&lt;b&gt;&amp;nbsp;Interlayer&lt;/b&gt;&lt;/font&gt;&lt;hr&gt;&lt;font face=&quot;Verdana&quot;&gt;&lt;b&gt;&lt;font style=&quot;font-size: 18px&quot;&gt;Server Side&lt;/font&gt;&lt;/b&gt;&lt;br&gt;&lt;/font&gt;" style="rounded=0;whiteSpace=wrap;html=1;strokeColor=#000000;" vertex="1" parent="1">
                    <mxGeometry x="565" y="55" width="240" height="70" as="geometry"/>
                </mxCell>
                <mxCell id="46" style="edgeStyle=none;html=1;exitX=0.5;exitY=0;exitDx=0;exitDy=0;entryX=0.5;entryY=1;entryDx=0;entryDy=0;fontFamily=Verdana;fontSize=20;endArrow=open;endFill=0;strokeWidth=1;dashed=1;" edge="1" parent="1" source="24" target="5">
                    <mxGeometry relative="1" as="geometry"/>
                </mxCell>
                <mxCell id="24" value="&lt;font style=&quot;font-size: 18px&quot;&gt;Control Implementation&lt;/font&gt;" style="rounded=0;whiteSpace=wrap;html=1;fontFamily=Verdana;fontSize=20;strokeColor=#000000;" vertex="1" parent="1">
                    <mxGeometry x="60" y="305" width="190" height="80" as="geometry"/>
                </mxCell>
                <mxCell id="25" value="" style="endArrow=classic;startArrow=classic;html=1;fontFamily=Verdana;fontSize=20;strokeWidth=2;exitX=1;exitY=0.5;exitDx=0;exitDy=0;entryX=0;entryY=0.5;entryDx=0;entryDy=0;" edge="1" parent="1" source="6" target="13">
                    <mxGeometry width="50" height="50" relative="1" as="geometry">
                        <mxPoint x="375" y="585" as="sourcePoint"/>
                        <mxPoint x="425" y="535" as="targetPoint"/>
                    </mxGeometry>
                </mxCell>
                <mxCell id="28" style="edgeStyle=none;html=1;exitX=0;exitY=0.5;exitDx=0;exitDy=0;entryX=1;entryY=0.5;entryDx=0;entryDy=0;fontFamily=Verdana;fontSize=20;endArrow=open;endFill=0;strokeWidth=2;" edge="1" parent="1" source="27" target="7">
                    <mxGeometry relative="1" as="geometry"/>
                </mxCell>
                <mxCell id="27" value="&lt;font style=&quot;font-size: 16px&quot;&gt;OpenLayers&lt;/font&gt;" style="rounded=0;whiteSpace=wrap;html=1;fontFamily=Verdana;fontSize=20;strokeColor=#000000;" vertex="1" parent="1">
                    <mxGeometry x="425" y="225" width="120" height="40" as="geometry"/>
                </mxCell>
                <mxCell id="31" style="edgeStyle=none;html=1;exitX=0.5;exitY=1;exitDx=0;exitDy=0;fontFamily=Verdana;fontSize=20;endArrow=open;endFill=0;strokeWidth=2;entryX=0.688;entryY=0.01;entryDx=0;entryDy=0;entryPerimeter=0;" edge="1" parent="1" source="30" target="35">
                    <mxGeometry relative="1" as="geometry">
                        <mxPoint x="484.5" y="465" as="targetPoint"/>
                    </mxGeometry>
                </mxCell>
                <mxCell id="32" style="edgeStyle=none;html=1;exitX=0;exitY=0.5;exitDx=0;exitDy=0;fontFamily=Verdana;fontSize=20;endArrow=open;endFill=0;strokeWidth=2;entryX=1;entryY=0.5;entryDx=0;entryDy=0;" edge="1" parent="1" source="30" target="24">
                    <mxGeometry relative="1" as="geometry">
                        <mxPoint x="245" y="345" as="targetPoint"/>
                    </mxGeometry>
                </mxCell>
                <mxCell id="37" style="edgeStyle=none;html=1;exitX=1;exitY=0.5;exitDx=0;exitDy=0;entryX=0;entryY=0.5;entryDx=0;entryDy=0;fontFamily=Verdana;fontSize=20;endArrow=open;endFill=0;strokeWidth=2;" edge="1" parent="1" source="30" target="36">
                    <mxGeometry relative="1" as="geometry"/>
                </mxCell>
                <mxCell id="30" value="&lt;font style=&quot;font-size: 16px&quot;&gt;Java&lt;/font&gt;" style="rounded=0;whiteSpace=wrap;html=1;fontFamily=Verdana;fontSize=20;strokeColor=#000000;" vertex="1" parent="1">
                    <mxGeometry x="435" y="325" width="70" height="40" as="geometry"/>
                </mxCell>
                <mxCell id="35" value="HTTP Requests&#10;TCP/IP" style="text;strokeColor=none;fillColor=none;align=center;verticalAlign=middle;spacingLeft=4;spacingRight=4;overflow=hidden;points=[[0,0.5],[1,0.5]];portConstraint=eastwest;rotatable=0;fontFamily=Verdana;fontSize=16;fontStyle=2" vertex="1" parent="1">
                    <mxGeometry x="305" y="465" width="240" height="60" as="geometry"/>
                </mxCell>
                <mxCell id="52" style="edgeStyle=none;html=1;exitX=0.5;exitY=0;exitDx=0;exitDy=0;entryX=0.5;entryY=1;entryDx=0;entryDy=0;dashed=1;fontFamily=Verdana;fontSize=18;endArrow=open;endFill=0;strokeWidth=1;" edge="1" parent="1" source="36" target="51">
                    <mxGeometry relative="1" as="geometry"/>
                </mxCell>
                <mxCell id="36" value="&lt;font style=&quot;font-size: 18px&quot;&gt;Computational&lt;br&gt;Task&lt;/font&gt;" style="rounded=0;whiteSpace=wrap;html=1;fontFamily=Verdana;fontSize=20;strokeColor=#000000;" vertex="1" parent="1">
                    <mxGeometry x="590" y="305" width="190" height="80" as="geometry"/>
                </mxCell>
                <mxCell id="40" style="edgeStyle=none;html=1;exitX=0;exitY=0.5;exitDx=0;exitDy=0;entryX=1;entryY=0.5;entryDx=0;entryDy=0;fontFamily=Verdana;fontSize=20;endArrow=open;endFill=0;strokeWidth=2;" edge="1" parent="1" source="38" target="36">
                    <mxGeometry relative="1" as="geometry"/>
                </mxCell>
                <mxCell id="38" value="&lt;font style=&quot;font-size: 16px&quot;&gt;C++&lt;/font&gt;" style="rounded=0;whiteSpace=wrap;html=1;fontFamily=Verdana;fontSize=20;strokeColor=#000000;" vertex="1" parent="1">
                    <mxGeometry x="845" y="295" width="60" height="40" as="geometry"/>
                </mxCell>
                <mxCell id="41" style="edgeStyle=none;html=1;exitX=0;exitY=0.5;exitDx=0;exitDy=0;entryX=1;entryY=0.5;entryDx=0;entryDy=0;fontFamily=Verdana;fontSize=20;endArrow=open;endFill=0;strokeWidth=2;" edge="1" parent="1" source="39" target="36">
                    <mxGeometry relative="1" as="geometry"/>
                </mxCell>
                <mxCell id="39" value="&lt;font style=&quot;font-size: 16px&quot;&gt;JNI&lt;/font&gt;" style="rounded=0;whiteSpace=wrap;html=1;fontFamily=Verdana;fontSize=20;strokeColor=#000000;" vertex="1" parent="1">
                    <mxGeometry x="845" y="355" width="60" height="40" as="geometry"/>
                </mxCell>
                <mxCell id="47" value="" style="endArrow=classic;startArrow=classic;html=1;dashed=1;fontFamily=Verdana;fontSize=20;strokeWidth=1;exitX=0.5;exitY=0;exitDx=0;exitDy=0;entryX=0.5;entryY=1;entryDx=0;entryDy=0;" edge="1" parent="1" source="13" target="36">
                    <mxGeometry width="50" height="50" relative="1" as="geometry">
                        <mxPoint x="825" y="505" as="sourcePoint"/>
                        <mxPoint x="875" y="455" as="targetPoint"/>
                    </mxGeometry>
                </mxCell>
                <mxCell id="51" value="&lt;font style=&quot;font-size: 18px&quot;&gt;Resource and Records Management&amp;nbsp;&lt;/font&gt;" style="rounded=0;whiteSpace=wrap;html=1;fontFamily=Verdana;fontSize=20;strokeColor=#000000;" vertex="1" parent="1">
                    <mxGeometry x="590" y="185" width="190" height="80" as="geometry"/>
                </mxCell>
                <mxCell id="53" value="&lt;font style=&quot;font-size: 18px&quot;&gt;Interaction&lt;/font&gt;" style="rounded=0;whiteSpace=wrap;html=1;fontFamily=Verdana;fontSize=20;strokeColor=#000000;" vertex="1" parent="1">
                    <mxGeometry x="1185" y="445" width="120" height="40" as="geometry"/>
                </mxCell>
                <mxCell id="55" value="" style="endArrow=classic;startArrow=classic;html=1;fontFamily=Verdana;fontSize=18;strokeWidth=2;entryX=0;entryY=0.5;entryDx=0;entryDy=0;exitX=1;exitY=0.5;exitDx=0;exitDy=0;" edge="1" parent="1" source="13" target="53">
                    <mxGeometry width="50" height="50" relative="1" as="geometry">
                        <mxPoint x="605" y="565" as="sourcePoint"/>
                        <mxPoint x="655" y="515" as="targetPoint"/>
                    </mxGeometry>
                </mxCell>
                <mxCell id="56" value="&lt;font face=&quot;Verdana&quot; style=&quot;font-size: 20px&quot;&gt;&lt;b&gt;&amp;nbsp;Data layer&lt;/b&gt;&lt;/font&gt;&lt;hr&gt;&lt;font face=&quot;Verdana&quot;&gt;&lt;b&gt;&lt;font style=&quot;font-size: 18px&quot;&gt;Database&lt;/font&gt;&lt;/b&gt;&lt;br&gt;&lt;/font&gt;" style="rounded=0;whiteSpace=wrap;html=1;strokeColor=#000000;" vertex="1" parent="1">
                    <mxGeometry x="1125" y="55" width="240" height="70" as="geometry"/>
                </mxCell>
                <mxCell id="57" value="&lt;span style=&quot;font-size: 18px&quot;&gt;Spatial Engine&lt;/span&gt;" style="rounded=0;whiteSpace=wrap;html=1;fontFamily=Verdana;fontSize=20;strokeColor=#000000;" vertex="1" parent="1">
                    <mxGeometry x="1160" y="185" width="170" height="40" as="geometry"/>
                </mxCell>
                <mxCell id="64" style="edgeStyle=none;html=1;exitX=1;exitY=0.5;exitDx=0;exitDy=0;entryX=0;entryY=0.5;entryDx=0;entryDy=0;fontFamily=Verdana;fontSize=18;endArrow=open;endFill=0;strokeWidth=2;" edge="1" parent="1" source="58" target="57">
                    <mxGeometry relative="1" as="geometry"/>
                </mxCell>
                <mxCell id="58" value="&lt;font style=&quot;font-size: 16px&quot;&gt;PostGIS&lt;/font&gt;" style="rounded=0;whiteSpace=wrap;html=1;fontFamily=Verdana;fontSize=20;strokeColor=#000000;" vertex="1" parent="1">
                    <mxGeometry x="985" y="185" width="110" height="40" as="geometry"/>
                </mxCell>
                <mxCell id="61" style="edgeStyle=none;html=1;exitX=0;exitY=0.5;exitDx=0;exitDy=0;entryX=1;entryY=0.5;entryDx=0;entryDy=0;fontFamily=Verdana;fontSize=18;endArrow=open;endFill=0;strokeWidth=2;" edge="1" parent="1" source="59" target="51">
                    <mxGeometry relative="1" as="geometry"/>
                </mxCell>
                <mxCell id="59" value="&lt;font style=&quot;font-size: 16px&quot;&gt;Tomcat&lt;br&gt;&lt;/font&gt;" style="rounded=0;whiteSpace=wrap;html=1;fontFamily=Verdana;fontSize=20;strokeColor=#000000;" vertex="1" parent="1">
                    <mxGeometry x="845" y="165" width="100" height="40" as="geometry"/>
                </mxCell>
                <mxCell id="62" style="edgeStyle=none;html=1;exitX=0;exitY=0.5;exitDx=0;exitDy=0;entryX=1;entryY=0.5;entryDx=0;entryDy=0;fontFamily=Verdana;fontSize=18;endArrow=open;endFill=0;strokeWidth=2;" edge="1" parent="1" source="60" target="51">
                    <mxGeometry relative="1" as="geometry"/>
                </mxCell>
                <mxCell id="63" style="edgeStyle=none;html=1;exitX=0.5;exitY=0;exitDx=0;exitDy=0;entryX=0.5;entryY=1;entryDx=0;entryDy=0;fontFamily=Verdana;fontSize=18;endArrow=open;endFill=0;strokeWidth=2;" edge="1" parent="1" source="60" target="59">
                    <mxGeometry relative="1" as="geometry"/>
                </mxCell>
                <mxCell id="60" value="&lt;font style=&quot;font-size: 16px&quot;&gt;GeoServer&lt;br&gt;&lt;/font&gt;" style="rounded=0;whiteSpace=wrap;html=1;fontFamily=Verdana;fontSize=20;strokeColor=#000000;" vertex="1" parent="1">
                    <mxGeometry x="845" y="245" width="100" height="40" as="geometry"/>
                </mxCell>
                <mxCell id="65" value="&lt;span style=&quot;font-size: 18px&quot;&gt;Spatial Database&lt;/span&gt;" style="rounded=0;whiteSpace=wrap;html=1;fontFamily=Verdana;fontSize=20;strokeColor=#000000;" vertex="1" parent="1">
                    <mxGeometry x="1160" y="305" width="170" height="40" as="geometry"/>
                </mxCell>
                <mxCell id="66" value="&lt;font style=&quot;font-size: 16px&quot;&gt;Java&lt;/font&gt;" style="rounded=0;whiteSpace=wrap;html=1;fontFamily=Verdana;fontSize=20;strokeColor=#000000;" vertex="1" parent="1">
                    <mxGeometry x="945" y="355" width="60" height="40" as="geometry"/>
                </mxCell>
                <mxCell id="67" value="" style="endArrow=none;html=1;fontFamily=Verdana;fontSize=18;strokeWidth=2;exitX=1;exitY=0.5;exitDx=0;exitDy=0;entryX=0;entryY=0.5;entryDx=0;entryDy=0;" edge="1" parent="1" source="39" target="66">
                    <mxGeometry width="50" height="50" relative="1" as="geometry">
                        <mxPoint x="935" y="395" as="sourcePoint"/>
                        <mxPoint x="985" y="345" as="targetPoint"/>
                    </mxGeometry>
                </mxCell>
                <mxCell id="68" value="" style="endArrow=classic;html=1;fontFamily=Verdana;fontSize=18;strokeWidth=2;" edge="1" parent="1">
                    <mxGeometry width="50" height="50" relative="1" as="geometry">
                        <mxPoint x="925" y="375" as="sourcePoint"/>
                        <mxPoint x="925" y="465" as="targetPoint"/>
                    </mxGeometry>
                </mxCell>
                <mxCell id="70" style="edgeStyle=none;html=1;exitX=1;exitY=0.5;exitDx=0;exitDy=0;entryX=0;entryY=0.5;entryDx=0;entryDy=0;fontFamily=Verdana;fontSize=18;endArrow=open;endFill=0;strokeWidth=2;" edge="1" parent="1" source="69" target="65">
                    <mxGeometry relative="1" as="geometry"/>
                </mxCell>
                <mxCell id="69" value="&lt;span style=&quot;font-size: 16px&quot;&gt;PostgreSQL&lt;/span&gt;" style="rounded=0;whiteSpace=wrap;html=1;fontFamily=Verdana;fontSize=20;strokeColor=#000000;" vertex="1" parent="1">
                    <mxGeometry x="985" y="305" width="110" height="40" as="geometry"/>
                </mxCell>
                <mxCell id="71" value="" style="endArrow=classic;startArrow=classic;html=1;fontFamily=Verdana;fontSize=18;strokeWidth=1;exitX=0.5;exitY=1;exitDx=0;exitDy=0;entryX=0.5;entryY=0;entryDx=0;entryDy=0;dashed=1;" edge="1" parent="1" source="65" target="53">
                    <mxGeometry width="50" height="50" relative="1" as="geometry">
                        <mxPoint x="845" y="505" as="sourcePoint"/>
                        <mxPoint x="895" y="455" as="targetPoint"/>
                    </mxGeometry>
                </mxCell>
                <mxCell id="72" value="" style="endArrow=classic;startArrow=classic;html=1;dashed=1;fontFamily=Verdana;fontSize=18;strokeWidth=1;exitX=0.5;exitY=1;exitDx=0;exitDy=0;entryX=0.5;entryY=0;entryDx=0;entryDy=0;" edge="1" parent="1" source="57" target="65">
                    <mxGeometry width="50" height="50" relative="1" as="geometry">
                        <mxPoint x="845" y="505" as="sourcePoint"/>
                        <mxPoint x="895" y="455" as="targetPoint"/>
                    </mxGeometry>
                </mxCell>
                <mxCell id="73" value="JDBC/libpq" style="text;strokeColor=none;fillColor=none;align=center;verticalAlign=middle;spacingLeft=4;spacingRight=4;overflow=hidden;points=[[0,0.5],[1,0.5]];portConstraint=eastwest;rotatable=0;fontFamily=Verdana;fontSize=16;fontStyle=2" vertex="1" parent="1">
                    <mxGeometry x="840" y="465" width="240" height="60" as="geometry"/>
                </mxCell>
            </root>
        </mxGraphModel>
    </diagram>
</mxfile>